<svg width="44" height="45" viewBox="0 0 44 45" fill="none" xmlns="http://www.w3.org/2000/svg">
<path d="M38.1459 23.2661C38.1459 32.0438 31.0301 39.1595 22.2525 39.1595C13.4748 39.1595 6.35909 32.0438 6.35909 23.2661C6.35909 14.4884 13.4748 7.37273 22.2525 7.37273C31.0301 7.37273 38.1459 14.4884 38.1459 23.2661Z" fill="#74F2C9"/>
<line x1="35.8093" y1="30.0885" x2="35.0636" y2="31.3801" stroke="black" stroke-width="2.55127"/>
<line x1="34.0712" y1="32.7492" x2="33.0753" y2="33.8594" stroke="black" stroke-width="2.55127"/>
<line x1="31.8104" y1="34.9983" x2="30.6039" y2="35.875" stroke="black" stroke-width="2.55127"/>
<line x1="29.1315" y1="36.723" x2="27.7687" y2="37.3288" stroke="black" stroke-width="2.55127"/>
<line x1="26.1567" y1="37.8514" x2="24.6984" y2="38.1636" stroke="black" stroke-width="2.55127"/>
<line x1="23.0112" y1="38.3407" x2="21.5198" y2="38.3446" stroke="black" stroke-width="2.55127"/>
<line x1="19.8343" y1="38.165" x2="18.3744" y2="37.86" stroke="black" stroke-width="2.55127"/>
<line x1="16.7558" y1="37.3299" x2="15.3937" y2="36.7224" stroke="black" stroke-width="2.55127"/>
<line x1="13.8876" y1="35.8472" x2="12.6805" y2="34.9713" stroke="black" stroke-width="2.55127"/>
<line x1="11.4134" y1="33.8225" x2="10.4192" y2="32.7108" stroke="black" stroke-width="2.55127"/>
<line x1="9.43657" y1="31.3456" x2="8.69426" y2="30.0521" stroke="black" stroke-width="2.55127"/>
<line x1="8.01522" y1="28.51" x2="7.55646" y2="27.0909" stroke="black" stroke-width="2.55127"/>
<line x1="7.20263" y1="25.4023" x2="7.0513" y2="23.9186" stroke="black" stroke-width="2.55127"/>
<line x1="7.05314" y1="22.2753" x2="7.20916" y2="20.7921" stroke="black" stroke-width="2.55127"/>
<line x1="7.56147" y1="19.1344" x2="8.02499" y2="17.7169" stroke="black" stroke-width="2.55127"/>
<line x1="8.77083" y1="16.0619" x2="9.52648" y2="14.7761" stroke="black" stroke-width="2.55127"/>
<line x1="10.514" y1="13.4322" x2="11.5183" y2="12.3296" stroke="black" stroke-width="2.55127"/>
<line x1="12.7866" y1="11.1994" x2="13.9996" y2="10.3317" stroke="black" stroke-width="2.55127"/>
<line x1="15.4816" y1="9.48886" x2="16.8488" y2="8.89301" stroke="black" stroke-width="2.55127"/>
<line x1="18.4368" y1="8.38549" x2="19.8974" y2="8.08386" stroke="black" stroke-width="2.55127"/>
<line x1="21.571" y1="7.91072" x2="23.0624" y2="7.9178" stroke="black" stroke-width="2.55127"/>
<line x1="24.8083" y1="8.10832" x2="26.2646" y2="8.4299" stroke="black" stroke-width="2.55127"/>
<line x1="27.863" y1="8.96285" x2="29.2204" y2="9.58077" stroke="black" stroke-width="2.55127"/>
<line x1="30.6731" y1="10.4283" x2="31.8734" y2="11.3135" stroke="black" stroke-width="2.55127"/>
<line x1="33.1848" y1="12.5081" x2="34.1705" y2="13.6273" stroke="black" stroke-width="2.55127"/>
<line x1="35.1316" y1="14.9758" x2="35.8643" y2="16.2748" stroke="black" stroke-width="2.55127"/>
<line x1="36.5408" y1="17.8265" x2="36.9893" y2="19.2489" stroke="black" stroke-width="2.55127"/>
<line x1="37.3383" y1="20.964" x2="37.4788" y2="22.4488" stroke="black" stroke-width="2.55127"/>
<line x1="37.4614" y1="24.1555" x2="37.2888" y2="25.6369" stroke="black" stroke-width="2.55127"/>
<line x1="36.9242" y1="27.2606" x2="36.4499" y2="28.6745" stroke="black" stroke-width="2.55127"/>
<path d="M22.403 22.3759L26.2341 15.5495L33.616 2.9545L28.8707 26.11L22.403 22.3759Z" fill="black"/>
<path d="M22.4034 22.3763L15.9358 18.6423L33.6164 2.95491L26.2344 15.5498L22.4034 22.3763Z" fill="white"/>
<path d="M22.3426 22.4812L18.5115 29.3077L11.1296 41.9027L15.8749 18.7471L22.3426 22.4812Z" fill="black"/>
<path d="M22.3427 22.4808L28.8103 26.2149L11.1297 41.9023L18.5117 29.3074L22.3427 22.4808Z" fill="white"/>
</svg>
