<svg width="260" height="45" viewBox="0 0 260 45" fill="none" xmlns="http://www.w3.org/2000/svg">
<path d="M38.1459 23.2661C38.1459 32.0438 31.0301 39.1595 22.2525 39.1595C13.4748 39.1595 6.35909 32.0438 6.35909 23.2661C6.35909 14.4884 13.4748 7.37273 22.2525 7.37273C31.0301 7.37273 38.1459 14.4884 38.1459 23.2661Z" fill="#74F2C9"/>
<line x1="35.8093" y1="30.0885" x2="35.0636" y2="31.3801" stroke="black" stroke-width="2.55127"/>
<line x1="34.0712" y1="32.7492" x2="33.0753" y2="33.8594" stroke="black" stroke-width="2.55127"/>
<line x1="31.8104" y1="34.9983" x2="30.6039" y2="35.875" stroke="black" stroke-width="2.55127"/>
<line x1="29.1315" y1="36.723" x2="27.7687" y2="37.3288" stroke="black" stroke-width="2.55127"/>
<line x1="26.1567" y1="37.8514" x2="24.6984" y2="38.1636" stroke="black" stroke-width="2.55127"/>
<line x1="23.0112" y1="38.3407" x2="21.5198" y2="38.3446" stroke="black" stroke-width="2.55127"/>
<line x1="19.8343" y1="38.165" x2="18.3744" y2="37.86" stroke="black" stroke-width="2.55127"/>
<line x1="16.7558" y1="37.3299" x2="15.3937" y2="36.7224" stroke="black" stroke-width="2.55127"/>
<line x1="13.8876" y1="35.8472" x2="12.6805" y2="34.9713" stroke="black" stroke-width="2.55127"/>
<line x1="11.4134" y1="33.8225" x2="10.4192" y2="32.7108" stroke="black" stroke-width="2.55127"/>
<line x1="9.43657" y1="31.3456" x2="8.69426" y2="30.0521" stroke="black" stroke-width="2.55127"/>
<line x1="8.01522" y1="28.51" x2="7.55646" y2="27.0909" stroke="black" stroke-width="2.55127"/>
<line x1="7.20263" y1="25.4023" x2="7.0513" y2="23.9186" stroke="black" stroke-width="2.55127"/>
<line x1="7.05314" y1="22.2753" x2="7.20916" y2="20.7921" stroke="black" stroke-width="2.55127"/>
<line x1="7.56147" y1="19.1344" x2="8.02499" y2="17.7169" stroke="black" stroke-width="2.55127"/>
<line x1="8.77083" y1="16.0619" x2="9.52648" y2="14.7761" stroke="black" stroke-width="2.55127"/>
<line x1="10.514" y1="13.4322" x2="11.5183" y2="12.3296" stroke="black" stroke-width="2.55127"/>
<line x1="12.7866" y1="11.1994" x2="13.9996" y2="10.3317" stroke="black" stroke-width="2.55127"/>
<line x1="15.4816" y1="9.48886" x2="16.8488" y2="8.89301" stroke="black" stroke-width="2.55127"/>
<line x1="18.4368" y1="8.38549" x2="19.8974" y2="8.08386" stroke="black" stroke-width="2.55127"/>
<line x1="21.571" y1="7.91072" x2="23.0624" y2="7.9178" stroke="black" stroke-width="2.55127"/>
<line x1="24.8083" y1="8.10832" x2="26.2646" y2="8.4299" stroke="black" stroke-width="2.55127"/>
<line x1="27.863" y1="8.96285" x2="29.2204" y2="9.58077" stroke="black" stroke-width="2.55127"/>
<line x1="30.6731" y1="10.4283" x2="31.8734" y2="11.3135" stroke="black" stroke-width="2.55127"/>
<line x1="33.1848" y1="12.5081" x2="34.1705" y2="13.6273" stroke="black" stroke-width="2.55127"/>
<line x1="35.1316" y1="14.9758" x2="35.8643" y2="16.2748" stroke="black" stroke-width="2.55127"/>
<line x1="36.5408" y1="17.8265" x2="36.9893" y2="19.2489" stroke="black" stroke-width="2.55127"/>
<line x1="37.3383" y1="20.964" x2="37.4788" y2="22.4488" stroke="black" stroke-width="2.55127"/>
<line x1="37.4614" y1="24.1555" x2="37.2888" y2="25.6369" stroke="black" stroke-width="2.55127"/>
<line x1="36.9242" y1="27.2606" x2="36.4499" y2="28.6745" stroke="black" stroke-width="2.55127"/>
<path d="M22.403 22.3759L26.2341 15.5495L33.616 2.9545L28.8707 26.11L22.403 22.3759Z" fill="black"/>
<path d="M22.4034 22.3763L15.9358 18.6423L33.6164 2.95491L26.2344 15.5498L22.4034 22.3763Z" fill="white"/>
<path d="M22.3426 22.4812L18.5115 29.3077L11.1296 41.9027L15.8749 18.7471L22.3426 22.4812Z" fill="black"/>
<path d="M22.3427 22.4808L28.8103 26.2149L11.1297 41.9023L18.5117 29.3074L22.3427 22.4808Z" fill="white"/>
<path d="M83.4885 9.51425H76.6749V3.84708H96.7479V9.51425H89.956V32.3992H83.4885V9.51425ZM104.861 32.3992H98.2854V14.6407H104.861V17.3877H104.753C104.868 17.0561 105.149 16.6379 105.596 16.1332C106.043 15.614 106.671 15.1526 107.478 14.7488C108.286 14.3306 109.274 14.1215 110.442 14.1215C111.264 14.1215 112.021 14.2513 112.713 14.5109C113.405 14.756 113.91 14.994 114.227 15.2247L111.675 20.5674C111.473 20.3222 111.112 20.0699 110.593 19.8103C110.088 19.5363 109.454 19.3994 108.69 19.3994C107.81 19.3994 107.082 19.6229 106.505 20.0699C105.943 20.5169 105.524 21.0577 105.25 21.6922C104.991 22.3267 104.861 22.9251 104.861 23.4875V32.3992ZM122.23 22.8602C122.23 24.2734 122.496 25.4054 123.03 26.2562C123.563 27.0926 124.457 27.5108 125.712 27.5108C126.995 27.5108 127.897 27.0926 128.416 26.2562C128.949 25.4054 129.216 24.2734 129.216 22.8602V14.6407H135.705V23.5524C135.705 25.4559 135.309 27.1142 134.516 28.5274C133.737 29.9262 132.605 31.0077 131.12 31.7719C129.634 32.5362 127.832 32.9184 125.712 32.9184C123.607 32.9184 121.811 32.5362 120.326 31.7719C118.841 31.0077 117.709 29.9262 116.93 28.5274C116.151 27.1142 115.762 25.4559 115.762 23.5524V14.6407H122.23V22.8602ZM149.326 27.7487C150.148 27.7487 150.826 27.6117 151.359 27.3377C151.893 27.0493 152.253 26.8186 152.441 26.6455L155.447 31.1014C155.217 31.2889 154.82 31.534 154.258 31.8368C153.695 32.1252 152.989 32.3776 152.138 32.5939C151.302 32.8102 150.343 32.9184 149.261 32.9184C147.228 32.9184 145.44 32.5362 143.897 31.7719C142.354 30.9933 141.15 29.8973 140.285 28.4841C139.434 27.0709 139.008 25.4126 139.008 23.5091C139.008 21.5912 139.434 19.9329 140.285 18.5341C141.15 17.1354 142.354 16.0538 143.897 15.2896C145.44 14.5109 147.228 14.1215 149.261 14.1215C150.328 14.1215 151.28 14.2369 152.116 14.4676C152.967 14.6839 153.681 14.9363 154.258 15.2247C154.835 15.4987 155.238 15.7366 155.469 15.9385L152.398 20.4376C152.297 20.3367 152.109 20.1925 151.835 20.005C151.576 19.8175 151.237 19.6517 150.819 19.5075C150.4 19.3633 149.903 19.2912 149.326 19.2912C148.619 19.2912 147.956 19.4715 147.336 19.832C146.73 20.1925 146.24 20.69 145.865 21.3245C145.49 21.959 145.303 22.6872 145.303 23.5091C145.303 24.3311 145.49 25.0665 145.865 25.7154C146.24 26.3499 146.73 26.8474 147.336 27.2079C147.956 27.5684 148.619 27.7487 149.326 27.7487ZM170.233 14.6407H177.674L169.303 23.1198L178.539 32.3992H170.925L164.069 25.2612V32.3992H157.493V2.63578H164.069V20.827L170.233 14.6407ZM193.233 32.3992V29.5224C193.104 29.8108 192.772 30.229 192.238 30.7769C191.719 31.3249 191.027 31.8224 190.162 32.2694C189.297 32.7021 188.287 32.9184 187.134 32.9184C185.403 32.9184 183.889 32.5002 182.591 31.6638C181.293 30.813 180.284 29.681 179.563 28.2678C178.842 26.8402 178.481 25.2612 178.481 23.5308C178.481 21.8003 178.842 20.2285 179.563 18.8153C180.284 17.3877 181.293 16.2485 182.591 15.3977C183.889 14.5469 185.403 14.1215 187.134 14.1215C188.244 14.1215 189.217 14.3018 190.054 14.6623C190.89 15.0084 191.568 15.4266 192.087 15.9169C192.606 16.3927 192.967 16.8325 193.169 17.2363V14.6407H199.701V32.3992H193.233ZM184.927 23.5308C184.927 24.3383 185.115 25.0665 185.49 25.7154C185.865 26.3499 186.362 26.8474 186.982 27.2079C187.617 27.5684 188.316 27.7487 189.08 27.7487C189.874 27.7487 190.573 27.5684 191.179 27.2079C191.784 26.8474 192.26 26.3499 192.606 25.7154C192.967 25.0665 193.147 24.3383 193.147 23.5308C193.147 22.7232 192.967 22.0022 192.606 21.3677C192.26 20.7188 191.784 20.2141 191.179 19.8536C190.573 19.4787 189.874 19.2912 189.08 19.2912C188.316 19.2912 187.617 19.4787 186.982 19.8536C186.362 20.2141 185.865 20.7188 185.49 21.3677C185.115 22.0022 184.927 22.7232 184.927 23.5308ZM203.765 32.3992V2.63578H210.341V17.2363C210.471 16.8325 210.803 16.3927 211.336 15.9169C211.884 15.4266 212.598 15.0084 213.477 14.6623C214.372 14.3018 215.381 14.1215 216.506 14.1215C218.236 14.1215 219.736 14.5469 221.005 15.3977C222.274 16.2485 223.254 17.3877 223.947 18.8153C224.639 20.2285 224.985 21.8003 224.985 23.5308C224.985 25.2612 224.639 26.8402 223.947 28.2678C223.254 29.681 222.274 30.813 221.005 31.6638C219.736 32.5002 218.236 32.9184 216.506 32.9184C215.554 32.9184 214.653 32.7453 213.802 32.3992C212.966 32.0676 212.237 31.6422 211.617 31.123C211.012 30.5895 210.565 30.0559 210.276 29.5224V32.3992H203.765ZM218.539 23.5308C218.539 22.7232 218.359 22.0022 217.998 21.3677C217.652 20.7188 217.169 20.2141 216.549 19.8536C215.943 19.4787 215.258 19.2912 214.494 19.2912C213.701 19.2912 212.987 19.4787 212.353 19.8536C211.733 20.2141 211.242 20.7188 210.882 21.3677C210.521 22.0022 210.341 22.7232 210.341 23.5308C210.341 24.3383 210.521 25.0665 210.882 25.7154C211.242 26.3499 211.733 26.8474 212.353 27.2079C212.987 27.5684 213.701 27.7487 214.494 27.7487C215.258 27.7487 215.943 27.5684 216.549 27.2079C217.169 26.8474 217.652 26.3499 217.998 25.7154C218.359 25.0665 218.539 24.3383 218.539 23.5308ZM234.614 32.3992H228.017V2.63578H234.614V32.3992ZM244.089 24.9151C244.132 25.5496 244.334 26.112 244.694 26.6023C245.055 27.0926 245.552 27.4819 246.187 27.7703C246.836 28.0443 247.6 28.1813 248.48 28.1813C249.316 28.1813 250.066 28.0948 250.729 27.9217C251.407 27.7487 251.991 27.5324 252.481 27.2728C252.986 27.0133 253.375 26.7465 253.649 26.4725L256.202 30.539C255.841 30.9284 255.329 31.3105 254.666 31.6854C254.017 32.0459 253.159 32.3415 252.092 32.5723C251.025 32.803 249.676 32.9184 248.047 32.9184C246.086 32.9184 244.341 32.5506 242.812 31.8152C241.284 31.0798 240.08 29.9983 239.2 28.5706C238.32 27.143 237.881 25.3982 237.881 23.3361C237.881 21.6057 238.256 20.0483 239.005 18.6639C239.77 17.2651 240.873 16.162 242.315 15.3545C243.757 14.5325 245.495 14.1215 247.528 14.1215C249.46 14.1215 251.133 14.4748 252.546 15.1814C253.974 15.888 255.07 16.9407 255.834 18.3395C256.613 19.7238 257.002 21.4542 257.002 23.5308C257.002 23.6461 256.995 23.8768 256.98 24.2229C256.98 24.569 256.966 24.7997 256.937 24.9151H244.089ZM250.816 21.4759C250.801 21.0144 250.679 20.5602 250.448 20.1132C250.217 19.6517 249.871 19.2768 249.41 18.9884C248.948 18.6855 248.357 18.5341 247.636 18.5341C246.915 18.5341 246.302 18.6783 245.797 18.9667C245.307 19.2407 244.932 19.6012 244.673 20.0483C244.413 20.4953 244.269 20.9712 244.24 21.4759H250.816Z" fill="black"/>
</svg>
